<svg class="animated" id="freepik_stories-mistery-box" xmlns="http://www.w3.org/2000/svg" viewBox="0 0 500 500" version="1.1" xmlns:xlink="http://www.w3.org/1999/xlink" xmlns:svgjs="http://svgjs.com/svgjs"><style>svg#freepik_stories-mistery-box:not(.animated) .animable {opacity: 0;}svg#freepik_stories-mistery-box.animated #elqf1i43f9oia {animation: 1.0s 1 forwards cubic-bezier(.36,-0.01,.5,1.38) slideLeft;animation-delay: 0s;}svg#freepik_stories-mistery-box.animated #elaj4piomyvqq {animation: 1.0s 1 forwards cubic-bezier(.36,-0.01,.5,1.38) slideLeft;animation-delay: 0.022727272727272728s;opacity: 0}svg#freepik_stories-mistery-box.animated #eljq94hue2lg9 {animation: 1.0s 1 forwards cubic-bezier(.36,-0.01,.5,1.38) slideLeft;animation-delay: 0.045454545454545456s;opacity: 0}svg#freepik_stories-mistery-box.animated #elvgkzqy3tjq {animation: 1.0s 1 forwards cubic-bezier(.36,-0.01,.5,1.38) slideLeft;animation-delay: 0.06818181818181818s;opacity: 0}svg#freepik_stories-mistery-box.animated #eljhu8gvwhdu {animation: 1.0s 1 forwards cubic-bezier(.36,-0.01,.5,1.38) slideLeft;animation-delay: 0.09090909090909091s;opacity: 0}svg#freepik_stories-mistery-box.animated #el4ckqqbmtorm {animation: 1.0s 1 forwards cubic-bezier(.36,-0.01,.5,1.38) slideLeft;animation-delay: 0.11363636363636365s;opacity: 0}svg#freepik_stories-mistery-box.animated #elke5x5ij0rj {animation: 1.0s 1 forwards cubic-bezier(.36,-0.01,.5,1.38) slideLeft;animation-delay: 0.13636363636363635s;opacity: 0}svg#freepik_stories-mistery-box.animated #elcfhbv4kcr5l {animation: 1.0s 1 forwards cubic-bezier(.36,-0.01,.5,1.38) slideLeft;animation-delay: 0.1590909090909091s;opacity: 0}svg#freepik_stories-mistery-box.animated #elr80kbnkn96r {animation: 1.0s 1 forwards cubic-bezier(.36,-0.01,.5,1.38) slideLeft;animation-delay: 0.18181818181818182s;opacity: 0}svg#freepik_stories-mistery-box.animated #elhdayegzxovf {animation: 1.0s 1 forwards cubic-bezier(.36,-0.01,.5,1.38) slideLeft;animation-delay: 0.20454545454545456s;opacity: 0}svg#freepik_stories-mistery-box.animated #eld8bu1hmxo1c {animation: 1.0s 1 forwards cubic-bezier(.36,-0.01,.5,1.38) slideLeft;animation-delay: 0.2272727272727273s;opacity: 0}svg#freepik_stories-mistery-box.animated #elsnwf57b1v8 {animation: 1.0s 1 forwards cubic-bezier(.36,-0.01,.5,1.38) slideLeft;animation-delay: 0.25s;opacity: 0}svg#freepik_stories-mistery-box.animated #elqiew4j209u8 {animation: 1.0s 1 forwards cubic-bezier(.36,-0.01,.5,1.38) slideLeft;animation-delay: 0.2727272727272727s;opacity: 0}svg#freepik_stories-mistery-box.animated #elj1v3c0xb3ff {animation: 1.0s 1 forwards cubic-bezier(.36,-0.01,.5,1.38) slideLeft;animation-delay: 0.29545454545454547s;opacity: 0}svg#freepik_stories-mistery-box.animated #elxdwzfxsdy4 {animation: 1.0s 1 forwards cubic-bezier(.36,-0.01,.5,1.38) slideLeft;animation-delay: 0.3181818181818182s;opacity: 0}svg#freepik_stories-mistery-box.animated #el2c04vwsvg53 {animation: 1.0s 1 forwards cubic-bezier(.36,-0.01,.5,1.38) slideLeft;animation-delay: 0.34090909090909094s;opacity: 0}svg#freepik_stories-mistery-box.animated #el3jlbhf3nmle {animation: 1.0s 1 forwards cubic-bezier(.36,-0.01,.5,1.38) slideLeft;animation-delay: 0.36363636363636365s;opacity: 0}svg#freepik_stories-mistery-box.animated #elgjuo9qym0d {animation: 1.0s 1 forwards cubic-bezier(.36,-0.01,.5,1.38) slideLeft;animation-delay: 0.38636363636363635s;opacity: 0}svg#freepik_stories-mistery-box.animated #eldcqly6jivut {animation: 1.0s 1 forwards cubic-bezier(.36,-0.01,.5,1.38) slideLeft;animation-delay: 0.4090909090909091s;opacity: 0}svg#freepik_stories-mistery-box.animated #el63rj1b7i4vq {animation: 1.0s 1 forwards cubic-bezier(.36,-0.01,.5,1.38) slideLeft;animation-delay: 0.4318181818181818s;opacity: 0}svg#freepik_stories-mistery-box.animated #elkxwa6295uy {animation: 1.0s 1 forwards cubic-bezier(.36,-0.01,.5,1.38) slideLeft;animation-delay: 0.4545454545454546s;opacity: 0}svg#freepik_stories-mistery-box.animated #elv947w46qayd {animation: 1.0s 1 forwards cubic-bezier(.36,-0.01,.5,1.38) slideLeft;animation-delay: 0.4772727272727273s;opacity: 0}svg#freepik_stories-mistery-box.animated #el5r5c2k8a5g8 {animation: 1.0s 1 forwards cubic-bezier(.36,-0.01,.5,1.38) slideLeft;animation-delay: 0.5s;opacity: 0}svg#freepik_stories-mistery-box.animated #elagylrfynvpc {animation: 1.0s 1 forwards cubic-bezier(.36,-0.01,.5,1.38) slideLeft;animation-delay: 0.5227272727272727s;opacity: 0}svg#freepik_stories-mistery-box.animated #el9hv5514a8d {animation: 1.0s 1 forwards cubic-bezier(.36,-0.01,.5,1.38) slideLeft;animation-delay: 0.5454545454545454s;opacity: 0}svg#freepik_stories-mistery-box.animated #elqjpucalj3v {animation: 1.0s 1 forwards cubic-bezier(.36,-0.01,.5,1.38) slideLeft;animation-delay: 0.5681818181818182s;opacity: 0}svg#freepik_stories-mistery-box.animated #elvs0b1xnflc {animation: 1.0s 1 forwards cubic-bezier(.36,-0.01,.5,1.38) slideLeft;animation-delay: 0.5909090909090909s;opacity: 0}svg#freepik_stories-mistery-box.animated #elp1dpcze6g3h {animation: 1.0s 1 forwards cubic-bezier(.36,-0.01,.5,1.38) slideLeft;animation-delay: 0.6136363636363636s;opacity: 0}svg#freepik_stories-mistery-box.animated #elbhoratx9i7b {animation: 1.0s 1 forwards cubic-bezier(.36,-0.01,.5,1.38) slideLeft;animation-delay: 0.6363636363636364s;opacity: 0}svg#freepik_stories-mistery-box.animated #elnrh3bwfs03a {animation: 1.0s 1 forwards cubic-bezier(.36,-0.01,.5,1.38) slideLeft;animation-delay: 0.6590909090909091s;opacity: 0}svg#freepik_stories-mistery-box.animated #eleumi6u4imrn {animation: 1.0s 1 forwards cubic-bezier(.36,-0.01,.5,1.38) slideLeft;animation-delay: 0.6818181818181819s;opacity: 0}svg#freepik_stories-mistery-box.animated #elutbkchkh0z {animation: 1.0s 1 forwards cubic-bezier(.36,-0.01,.5,1.38) slideLeft;animation-delay: 0.7045454545454546s;opacity: 0}svg#freepik_stories-mistery-box.animated #elkh5q5jbuico {animation: 1.0s 1 forwards cubic-bezier(.36,-0.01,.5,1.38) slideLeft;animation-delay: 0.7272727272727273s;opacity: 0}svg#freepik_stories-mistery-box.animated #el8ixb4t6zn5p {animation: 1.0s 1 forwards cubic-bezier(.36,-0.01,.5,1.38) slideLeft;animation-delay: 0.75s;opacity: 0}svg#freepik_stories-mistery-box.animated #el8ua2r5kzz3v {animation: 1.0s 1 forwards cubic-bezier(.36,-0.01,.5,1.38) slideLeft;animation-delay: 0.7727272727272727s;opacity: 0}svg#freepik_stories-mistery-box.animated #ellor3kfe9be {animation: 1.0s 1 forwards cubic-bezier(.36,-0.01,.5,1.38) slideLeft;animation-delay: 0.7954545454545455s;opacity: 0}svg#freepik_stories-mistery-box.animated #eluuhyy4lfao {animation: 1.0s 1 forwards cubic-bezier(.36,-0.01,.5,1.38) slideLeft;animation-delay: 0.8181818181818182s;opacity: 0}svg#freepik_stories-mistery-box.animated #elm9nerp4f32t {animation: 1.0s 1 forwards cubic-bezier(.36,-0.01,.5,1.38) slideLeft;animation-delay: 0.8409090909090909s;opacity: 0}svg#freepik_stories-mistery-box.animated #el8ggrqodan3n {animation: 1.0s 1 forwards cubic-bezier(.36,-0.01,.5,1.38) slideLeft;animation-delay: 0.8636363636363636s;opacity: 0}svg#freepik_stories-mistery-box.animated #elzrj5akw6rm9 {animation: 1.0s 1 forwards cubic-bezier(.36,-0.01,.5,1.38) slideLeft;animation-delay: 0.8863636363636364s;opacity: 0}svg#freepik_stories-mistery-box.animated #elt8cqv6yux {animation: 1.0s 1 forwards cubic-bezier(.36,-0.01,.5,1.38) slideLeft;animation-delay: 0.9090909090909092s;opacity: 0}svg#freepik_stories-mistery-box.animated #ele2992rvyn5 {animation: 1.0s 1 forwards cubic-bezier(.36,-0.01,.5,1.38) slideLeft;animation-delay: 0.9318181818181819s;opacity: 0}svg#freepik_stories-mistery-box.animated #elo0s1vfmigy {animation: 1.0s 1 forwards cubic-bezier(.36,-0.01,.5,1.38) slideLeft;animation-delay: 0.9545454545454546s;opacity: 0}svg#freepik_stories-mistery-box.animated #elzapyu4nnjd {animation: 1.0s 1 forwards cubic-bezier(.36,-0.01,.5,1.38) slideLeft;animation-delay: 0.9772727272727273s;opacity: 0}svg#freepik_stories-mistery-box.animated #freepik--background-complete--inject-29 {animation: 1.0s 1 forwards cubic-bezier(.36,-0.01,.5,1.38) slideLeft,6s Infinite  linear floating;animation-delay: 0s,3s;}svg#freepik_stories-mistery-box.animated #eljukxvz8wg3n {animation: 1s 1 forwards cubic-bezier(.36,-0.01,.5,1.38) fadeIn;animation-delay: 0s;}svg#freepik_stories-mistery-box.animated #eln48bc1jn9ao {animation: 1s 1 forwards cubic-bezier(.36,-0.01,.5,1.38) fadeIn;animation-delay: 0.2s;opacity: 0}svg#freepik_stories-mistery-box.animated #elkujmcym9hbd {animation: 1s 1 forwards cubic-bezier(.36,-0.01,.5,1.38) fadeIn;animation-delay: 0.4s;opacity: 0}svg#freepik_stories-mistery-box.animated #el4qa4v8sv5mu {animation: 1s 1 forwards cubic-bezier(.36,-0.01,.5,1.38) fadeIn;animation-delay: 0.6000000000000001s;opacity: 0}svg#freepik_stories-mistery-box.animated #elietqbbgbatq {animation: 1s 1 forwards cubic-bezier(.36,-0.01,.5,1.38) fadeIn;animation-delay: 0.8s;opacity: 0}svg#freepik_stories-mistery-box.animated #freepik--sspeech-bubble--inject-29 {animation: 1s 1 forwards cubic-bezier(.36,-0.01,.5,1.38) fadeIn,6s Infinite  linear floating;animation-delay: 0s,3s;}svg#freepik_stories-mistery-box.animated #freepik--Character--inject-29 {animation: 1.0s 1 forwards cubic-bezier(.36,-0.01,.5,1.38) fadeIn,6s Infinite  linear floating;animation-delay: 0s,3s;}            @keyframes slideLeft {                0% {                    opacity: 0;                    transform: translateX(-30px);                }                100% {                    opacity: 1;                    transform: translateX(0);                }            }                    @keyframes floating {                0% {                    opacity: 1;                    transform: translateY(0px);                }                50% {                    transform: translateY(-10px);                }                100% {                    opacity: 1;                    transform: translateY(0px);                }            }                    @keyframes fadeIn {                0% {                    opacity: 0;                }                100% {                    opacity: 1;                }            }        .animator-hidden { display: none; }</style><g id="freepik--background-complete--inject-29" class="animable animator-hidden" style="transform-origin: 250.79px 242.3px;"><path d="M444.71,349.14H264a5.87,5.87,0,0,1-5.86-5.86V80A5.87,5.87,0,0,1,264,74.15H444.71A5.87,5.87,0,0,1,450.57,80V343.28A5.87,5.87,0,0,1,444.71,349.14ZM264,74.4A5.61,5.61,0,0,0,258.35,80V343.28a5.61,5.61,0,0,0,5.61,5.61H444.71a5.61,5.61,0,0,0,5.61-5.61V80a5.61,5.61,0,0,0-5.61-5.61Z" style="fill: rgb(240, 240, 240); transform-origin: 354.355px 211.645px;" id="elqf1i43f9oia" class="animable"></path><path d="M236.28,349.14H55.53a5.87,5.87,0,0,1-5.86-5.86V80a5.87,5.87,0,0,1,5.86-5.86H236.28A5.87,5.87,0,0,1,242.14,80V343.28A5.87,5.87,0,0,1,236.28,349.14ZM55.53,74.4A5.61,5.61,0,0,0,49.92,80V343.28a5.61,5.61,0,0,0,5.61,5.61H236.28a5.61,5.61,0,0,0,5.61-5.61V80a5.61,5.61,0,0,0-5.61-5.61Z" style="fill: rgb(240, 240, 240); transform-origin: 145.905px 211.64px;" id="elaj4piomyvqq" class="animable"></path><rect x="0.79" y="410.21" width="500" height="0.25" style="fill: rgb(224, 224, 224); transform-origin: 250.79px 410.335px;" id="eljq94hue2lg9" class="animable"></rect><g id="elvgkzqy3tjq"><rect x="179.72" y="89.42" width="34.57" height="10.13" rx="1.5" style="fill: rgb(240, 240, 240); transform-origin: 197.005px 94.485px; transform: rotate(180deg);" class="animable"></rect></g><g id="eljhu8gvwhdu"><rect x="160.86" y="102.34" width="34.57" height="10.13" rx="1.5" style="fill: rgb(240, 240, 240); transform-origin: 178.145px 107.405px; transform: rotate(180deg);" class="animable"></rect></g><rect x="63.9" y="241.32" width="34.57" height="10.13" rx="1.5" style="fill: rgb(240, 240, 240); transform-origin: 81.185px 246.385px;" id="el4ckqqbmtorm" class="animable"></rect><rect x="82.75" y="254.24" width="34.57" height="10.13" rx="1.5" style="fill: rgb(240, 240, 240); transform-origin: 100.035px 259.305px;" id="elke5x5ij0rj" class="animable"></rect><rect x="368.16" y="251.54" width="34.57" height="10.13" rx="1.5" style="fill: rgb(240, 240, 240); transform-origin: 385.445px 256.605px;" id="elcfhbv4kcr5l" class="animable"></rect><rect x="405.87" y="251.54" width="34.57" height="10.13" rx="1.5" style="fill: rgb(240, 240, 240); transform-origin: 423.155px 256.605px;" id="elr80kbnkn96r" class="animable"></rect><rect x="387.01" y="264.45" width="34.57" height="10.13" rx="1.5" style="fill: rgb(240, 240, 240); transform-origin: 404.295px 269.515px;" id="elhdayegzxovf" class="animable"></rect><rect x="421.55" y="324.25" width="36.07" height="85.96" style="fill: rgb(230, 230, 230); transform-origin: 439.585px 367.23px;" id="eld8bu1hmxo1c" class="animable"></rect><rect x="344.04" y="324.25" width="85.96" height="85.96" style="fill: rgb(245, 245, 245); transform-origin: 387.02px 367.23px;" id="elsnwf57b1v8" class="animable"></rect><rect x="382.91" y="324.25" width="10.62" height="85.71" style="fill: rgb(250, 250, 250); transform-origin: 388.22px 367.105px;" id="elqiew4j209u8" class="animable"></rect><rect x="125.37" y="324.25" width="36.07" height="85.96" style="fill: rgb(230, 230, 230); transform-origin: 143.405px 367.23px;" id="elj1v3c0xb3ff" class="animable"></rect><rect x="47.86" y="324.25" width="85.96" height="85.96" style="fill: rgb(245, 245, 245); transform-origin: 90.84px 367.23px;" id="elxdwzfxsdy4" class="animable"></rect><rect x="86.72" y="324.25" width="10.62" height="85.71" style="fill: rgb(250, 250, 250); transform-origin: 92.03px 367.105px;" id="el2c04vwsvg53" class="animable"></rect><rect x="307.98" y="369.98" width="36.07" height="40.24" style="fill: rgb(230, 230, 230); transform-origin: 326.015px 390.1px;" id="el3jlbhf3nmle" class="animable"></rect><rect x="230.47" y="369.98" width="85.96" height="40.24" style="fill: rgb(245, 245, 245); transform-origin: 273.45px 390.1px;" id="elgjuo9qym0d" class="animable"></rect><rect x="269.34" y="369.98" width="10.62" height="40.12" style="fill: rgb(250, 250, 250); transform-origin: 274.65px 390.04px;" id="eldcqly6jivut" class="animable"></rect><rect x="142.22" y="284.01" width="36.07" height="40.24" style="fill: rgb(230, 230, 230); transform-origin: 160.255px 304.13px;" id="el63rj1b7i4vq" class="animable"></rect><rect x="64.72" y="284.01" width="85.96" height="40.24" style="fill: rgb(245, 245, 245); transform-origin: 107.7px 304.13px;" id="elkxwa6295uy" class="animable"></rect><rect x="103.58" y="284.01" width="10.62" height="40.12" style="fill: rgb(250, 250, 250); transform-origin: 108.89px 304.07px;" id="elv947w46qayd" class="animable"></rect><rect x="276.93" y="93.42" width="79.02" height="79.02" style="fill: rgb(230, 230, 230); transform-origin: 316.44px 132.93px;" id="el5r5c2k8a5g8" class="animable"></rect><g id="elagylrfynvpc"><rect x="280.93" y="97.42" width="71.02" height="71.02" style="fill: rgb(250, 250, 250); transform-origin: 316.44px 132.93px; transform: rotate(90deg);" class="animable"></rect></g><path d="M311.68,152.31s13-26.74,40.27-27.27v43.4H316.44Z" style="fill: rgb(240, 240, 240); transform-origin: 331.815px 146.74px;" id="el9hv5514a8d" class="animable"></path><path d="M280.93,144.8s11.72-6.15,23.64-1.63c15,5.66,23.65,25.27,23.65,25.27H280.93Z" style="fill: rgb(245, 245, 245); transform-origin: 304.575px 154.976px;" id="elqjpucalj3v" class="animable"></path><circle cx="305.29" cy="119.93" r="12.53" style="fill: rgb(255, 255, 255); transform-origin: 305.29px 119.93px;" id="elvs0b1xnflc" class="animable"></circle><rect x="61.76" y="93.42" width="69.33" height="134.21" style="fill: rgb(230, 230, 230); transform-origin: 96.425px 160.525px;" id="elp1dpcze6g3h" class="animable"></rect><g id="elbhoratx9i7b"><rect x="33.32" y="129.86" width="126.21" height="61.33" style="fill: rgb(250, 250, 250); transform-origin: 96.425px 160.525px; transform: rotate(90deg);" class="animable"></rect></g><circle cx="87" cy="136.53" r="12.53" style="fill: rgb(255, 255, 255); transform-origin: 87px 136.53px;" id="elnrh3bwfs03a" class="animable"></circle><path d="M77.23,223.63S92.75,149,127.09,142.3v81.33H77.23Z" style="fill: rgb(240, 240, 240); transform-origin: 102.16px 182.965px;" id="eleumi6u4imrn" class="animable"></path><path d="M65.76,179.34s7.9-7.62,20.42-3.06c23.52,8.55,36.65,47.35,36.65,47.35H65.76Z" style="fill: rgb(245, 245, 245); transform-origin: 94.295px 199.228px;" id="elutbkchkh0z" class="animable"></path><g id="elkh5q5jbuico"><circle cx="404.3" cy="131.23" r="20.94" style="fill: rgb(224, 224, 224); transform-origin: 404.3px 131.23px; transform: rotate(-7.05deg);" class="animable"></circle></g><g id="el8ixb4t6zn5p"><circle cx="404.3" cy="131.23" r="19.29" style="fill: rgb(250, 250, 250); transform-origin: 404.3px 131.23px; transform: rotate(-76.83deg);" class="animable"></circle></g><rect x="403.63" y="113.7" width="0.72" height="4.02" style="fill: rgb(224, 224, 224); transform-origin: 403.99px 115.71px;" id="el8ua2r5kzz3v" class="animable"></rect><rect x="403.63" y="144.63" width="0.72" height="4.02" style="fill: rgb(224, 224, 224); transform-origin: 403.99px 146.64px;" id="ellor3kfe9be" class="animable"></rect><rect x="386.51" y="130.82" width="4.02" height="0.72" style="fill: rgb(224, 224, 224); transform-origin: 388.52px 131.18px;" id="eluuhyy4lfao" class="animable"></rect><rect x="417.45" y="130.82" width="4.02" height="0.72" style="fill: rgb(224, 224, 224); transform-origin: 419.46px 131.18px;" id="elm9nerp4f32t" class="animable"></rect><g id="el8ggrqodan3n"><rect x="412.92" y="119.88" width="4.02" height="0.72" style="fill: rgb(224, 224, 224); transform-origin: 414.93px 120.24px; transform: rotate(-44.99deg);" class="animable"></rect></g><g id="elzrj5akw6rm9"><rect x="391.04" y="141.75" width="4.02" height="0.72" style="fill: rgb(224, 224, 224); transform-origin: 393.05px 142.11px; transform: rotate(-45.02deg);" class="animable"></rect></g><g id="elt8cqv6yux"><rect x="392.69" y="118.23" width="0.72" height="4.02" style="fill: rgb(224, 224, 224); transform-origin: 393.05px 120.24px; transform: rotate(-45.01deg);" class="animable"></rect></g><g id="ele2992rvyn5"><rect x="414.57" y="140.1" width="0.72" height="4.02" style="fill: rgb(224, 224, 224); transform-origin: 414.93px 142.11px; transform: rotate(-44.99deg);" class="animable"></rect></g><g id="elo0s1vfmigy"><rect x="406.84" y="128.66" width="0.62" height="7.33" style="fill: rgb(224, 224, 224); transform-origin: 407.15px 132.325px; transform: rotate(-68.51deg);" class="animable"></rect></g><polygon points="404.3 131.49 393.05 131.49 393.05 130.87 403.68 130.87 403.68 122.14 404.3 122.14 404.3 131.49" style="fill: rgb(224, 224, 224); transform-origin: 398.675px 126.815px;" id="elzapyu4nnjd" class="animable"></polygon></g><g id="freepik--Shadow--inject-29" class="animable" style="transform-origin: 252.74px 454.005px;"><path d="M468.48,454c0,3.5-96.59,6.34-215.74,6.34S37,457.52,37,454s96.59-6.33,215.74-6.33S468.48,450.52,468.48,454Z" style="fill: rgb(245, 245, 245); transform-origin: 252.74px 454.005px;" id="elz9hgou6ed7j" class="animable"></path></g><g id="freepik--mistery-box--inject-29" class="animable animator-hidden" style="transform-origin: 332.875px 329.57px;"><polygon points="385.33 205.79 404.3 222.81 321.99 222.81 305.91 205.79 385.33 205.79" style="fill: rgb(221, 180, 180); transform-origin: 355.105px 214.3px;" id="el6mren2i7vjx" class="animable"></polygon><g id="el6p8ttwewwbc"><polygon points="385.33 205.79 404.3 222.81 321.99 222.81 305.91 205.79 385.33 205.79" style="opacity: 0.5; transform-origin: 355.105px 214.3px;" class="animable"></polygon></g><rect x="305.91" y="205.79" width="79.46" height="79.46" style="fill: rgb(221, 180, 180); transform-origin: 345.64px 245.52px;" id="elg1o0a4ym1eo" class="animable"></rect><g id="elo36szk5sq4"><rect x="305.91" y="205.79" width="79.46" height="79.46" style="opacity: 0.2; transform-origin: 345.64px 245.52px;" class="animable"></rect></g><rect x="280.39" y="205.79" width="79.46" height="79.46" style="fill: rgb(221, 180, 180); transform-origin: 320.12px 245.52px;" id="el2efh3d2yey4" class="animable"></rect><polygon points="280.42 205.79 261.45 222.81 343.76 222.81 359.84 205.79 280.42 205.79" style="fill: rgb(221, 180, 180); transform-origin: 310.645px 214.3px;" id="eljqg74kp64h" class="animable"></polygon><g id="elcbi7udnsbp"><polygon points="280.42 205.79 261.45 222.81 343.76 222.81 359.84 205.79 280.42 205.79" style="fill: rgb(255, 255, 255); opacity: 0.3; transform-origin: 310.645px 214.3px;" class="animable"></polygon></g><path d="M321.41,233.17c7.4,0,12.43,4.36,12.43,11.55,0,7.79-5.52,11.22-12.93,11.22l-.22,4.37h-5.47l-.28-8.68h1.82c6.25,0,11.06-1.11,11.06-6.91,0-3.87-2.38-6.25-6.36-6.25s-6.41,2.21-6.41,6.08h-5.91C309.08,237.86,313.89,233.17,321.41,233.17Zm-3.54,39.35a4,4,0,1,1,4-4A4,4,0,0,1,317.87,272.52Z" style="fill: rgb(255, 255, 255); transform-origin: 321.49px 252.845px;" id="elxbmukzwq2p" class="animable"></path><rect x="269.62" y="285.25" width="93.66" height="8.23" style="fill: rgb(221, 180, 180); transform-origin: 316.45px 289.365px;" id="el812x9d5kglu" class="animable"></rect><g id="elesed64p793k"><rect x="269.62" y="285.25" width="93.66" height="8.23" style="opacity: 0.3; transform-origin: 316.45px 289.365px;" class="animable"></rect></g><rect x="363.28" y="285.25" width="34.79" height="8.23" style="fill: rgb(221, 180, 180); transform-origin: 380.675px 289.365px;" id="elktzrn1ikz" class="animable"></rect><g id="elodut8zmxnlf"><rect x="363.28" y="285.25" width="34.79" height="8.23" style="opacity: 0.5; transform-origin: 380.675px 289.365px;" class="animable"></rect></g><rect x="325.97" y="293.48" width="5.64" height="154.89" style="fill: rgb(38, 50, 56); transform-origin: 328.79px 370.925px;" id="elh0p6905t68" class="animable"></rect><g id="elax1c17htros"><rect x="325.97" y="293.48" width="5.64" height="154.89" style="fill: rgb(255, 255, 255); opacity: 0.2; transform-origin: 328.79px 370.925px;" class="animable"></rect></g><g id="eldsjzp2z19mk"><polyline points="331.61 297.33 325.97 299.67 325.97 293.48 331.61 293.48 331.61 297.33" style="opacity: 0.2; transform-origin: 328.79px 296.575px;" class="animable"></polyline></g><path d="M309.33,445.22h38.93a8.13,8.13,0,0,1,8.13,8.13v0a0,0,0,0,1,0,0H301.19a0,0,0,0,1,0,0v0A8.13,8.13,0,0,1,309.33,445.22Z" style="fill: rgb(221, 180, 180); transform-origin: 328.79px 449.285px;" id="elqb25gkivz2o" class="animable"></path></g><g id="freepik--Plant--inject-29" class="animable animator-hidden" style="transform-origin: 102.141px 388.89px;"><path d="M87,373.05s6.82-2.49,8.59,4.73,6.82,5.37,7.78,3.78c1.89-3.12,2.15-14.41-1.09-15.09C98.35,365.65,88.31,369.75,87,373.05Z" style="fill: rgb(221, 180, 180); transform-origin: 95.8807px 374.689px;" id="el93ep3o6xv09" class="animable"></path><g id="elm21er0h2wlo"><g style="opacity: 0.4; transform-origin: 95.8807px 374.689px;" class="animable"><path d="M87,373.05s6.82-2.49,8.59,4.73,6.82,5.37,7.78,3.78c1.89-3.12,2.15-14.41-1.09-15.09C98.35,365.65,88.31,369.75,87,373.05Z" id="elyyak4122ie" class="animable" style="transform-origin: 95.8807px 374.689px;"></path></g></g><path d="M102.23,366.47c-8,.11-10.12,7.14-11.41,13.34L88.22,375l1.84,8.62c-.2.95-.4,1.82-.64,2.57a13,13,0,0,1-7.87,8s-.36-2.48-.68-6h0l2.92-4.58-3.17,1.33c-.35-5.46-.4-12,.93-15.77,2.57-7.23,9.47-5,9.47-5Z" style="fill: rgb(221, 180, 180); transform-origin: 91.3195px 379.018px;" id="el1hmsa77wda8" class="animable"></path><path d="M122.17,358.88s-4.2-1.27-8.6,4.74c-4.23,5.78-5.92,6.46-8.79,4.21s-1.14-14.85,2.11-15.53C110.76,351.49,120.8,355.59,122.17,358.88Z" style="fill: rgb(221, 180, 180); transform-origin: 112.747px 360.61px;" id="elwuqr9raq3vf" class="animable"></path><g id="eloahrj854rwq"><g style="opacity: 0.4; transform-origin: 112.747px 360.61px;" class="animable"><path d="M122.17,358.88s-4.2-1.27-8.6,4.74c-4.23,5.78-5.92,6.46-8.79,4.21s-1.14-14.85,2.11-15.53C110.76,351.49,120.8,355.59,122.17,358.88Z" id="el0oftdi3mgyp" class="animable" style="transform-origin: 112.747px 360.61px;"></path></g></g><path d="M135.66,391.71a19.23,19.23,0,0,1-8.8-6.55l4.63-10.86-6.35,7.91a14.78,14.78,0,0,1-.71-1.87c-2.75-8.71-2.19-27.63-18-27.86l15.73-3.58s9.84-3.18,13.51,7.14a36.87,36.87,0,0,1,1.56,10.13l-5.73-5.3s4,5.76,5.79,8.16A173.48,173.48,0,0,1,135.66,391.71Z" style="fill: rgb(221, 180, 180); transform-origin: 121.86px 370.074px;" id="elrinykgcav8d" class="animable"></path><path d="M82.15,342.12s6.83-2.49,8.6,4.74,10.65,10,11.57,6.46c1-3.77-1.18-17.2-4.43-17.88C94,334.63,83.52,338.83,82.15,342.12Z" style="fill: rgb(221, 180, 180); transform-origin: 92.3574px 345.096px;" id="el9tp0wp5bv2b" class="animable"></path><g id="elb41jpm7x436"><g style="opacity: 0.4; transform-origin: 92.3574px 345.096px;" class="animable"><path d="M82.15,342.12s6.83-2.49,8.6,4.74,10.65,10,11.57,6.46c1-3.77-1.18-17.2-4.43-17.88C94,334.63,83.52,338.83,82.15,342.12Z" id="elhmr5qct0cv9" class="animable" style="transform-origin: 92.3574px 345.096px;"></path></g></g><path d="M98.18,335.5c-12.93.19-15.1,13-17,22.45l-6.59-9.51c.08.28,3.57,11.62,4.93,16.11-3,7.94-10.9,10.4-10.9,10.4s-2.19-15.17-1.49-26.82l5.34-4.45-5.05,1.25a26.48,26.48,0,0,1,1.2-5.65c3.67-10.31,13.52-7.13,13.52-7.13Z" style="fill: rgb(221, 180, 180); transform-origin: 82.586px 353.319px;" id="el67glv2yk25h" class="animable"></path><path d="M103.32,398.65h0a.46.46,0,0,1-.4-.5A190.1,190.1,0,0,0,96,324.37a.46.46,0,0,1,.28-.58.46.46,0,0,1,.57.29c.12.33,11.4,34.12,6.9,74.17A.45.45,0,0,1,103.32,398.65Z" style="fill: rgb(221, 180, 180); transform-origin: 100.393px 361.21px;" id="elcurau24jqpk" class="animable"></path><rect x="86.11" y="395.75" width="34.61" height="4.85" style="fill: rgb(38, 50, 56); transform-origin: 103.415px 398.175px;" id="elarhb1dm5eew" class="animable"></rect><g id="el9movmt0of29"><rect x="86.11" y="395.75" width="34.61" height="4.85" style="fill: rgb(255, 255, 255); opacity: 0.2; transform-origin: 103.415px 398.175px;" class="animable"></rect></g><path d="M115.13,400.6H91.51c-2.83,6.58-12,26-12,31.73,0,6.79,8.46,20.93,8.46,20.93,0,1,30.71,1,30.71,0,0,0,8.46-14.14,8.46-20.93C127.14,426.6,118,407.18,115.13,400.6Z" style="fill: rgb(38, 50, 56); transform-origin: 103.325px 427.305px;" id="el3g542oxh94f" class="animable"></path></g><g id="freepik--sspeech-bubble--inject-29" class="animable" style="transform-origin: 152.14px 109.24px;"><circle cx="152.15" cy="109.24" r="21.05" style="fill: rgb(221, 180, 180); transform-origin: 152.15px 109.24px;" id="eljukxvz8wg3n" class="animable"></circle><g id="eln48bc1jn9ao"><g style="opacity: 0.7; transform-origin: 152.15px 109.24px;" class="animable"><circle cx="152.15" cy="109.24" r="21.05" style="fill: rgb(255, 255, 255); transform-origin: 152.15px 109.24px;" id="elec4x40jfhy" class="animable"></circle></g></g><path d="M152.15,130.72a21.48,21.48,0,1,1,21.47-21.48A21.5,21.5,0,0,1,152.15,130.72Zm0-42.09a20.62,20.62,0,1,0,20.61,20.61A20.64,20.64,0,0,0,152.15,88.63Z" style="fill: rgb(221, 180, 180); transform-origin: 152.14px 109.24px;" id="elkujmcym9hbd" class="animable"></path><path d="M152.32,97.55c4.55,0,7.65,2.68,7.65,7.11,0,4.79-3.4,6.9-8,6.9l-.14,2.69h-3.36l-.17-5.34h1.12c3.84,0,6.8-.68,6.8-4.25a3.57,3.57,0,0,0-3.91-3.85c-2.42,0-3.95,1.36-3.95,3.74h-3.64C144.73,100.44,147.69,97.55,152.32,97.55Zm-2.18,24.22a2.49,2.49,0,1,1,2.45-2.49A2.45,2.45,0,0,1,150.14,121.77Z" style="fill: rgb(221, 180, 180); transform-origin: 152.345px 109.66px;" id="el4qa4v8sv5mu" class="animable"></path><path d="M165.31,125.66l6.87,3.41a.43.43,0,0,0,.6-.55l-3-7.79A21.43,21.43,0,0,1,165.31,125.66Z" style="fill: rgb(221, 180, 180); transform-origin: 169.063px 124.926px;" id="elietqbbgbatq" class="animable"></path></g><g id="freepik--Character--inject-29" class="animable" style="transform-origin: 188.837px 283.391px;"><path d="M170.77,164c1,4.84,42.12,2.92,40.2-3.33a28.55,28.55,0,0,0-1.5-3.25c-2.67-5.75-7.12-13-21.49-12.93C179.33,144.52,167.94,149.75,170.77,164Z" style="fill: rgb(221, 180, 180); transform-origin: 190.682px 155.606px;" id="elq8jfa3ji7a" class="animable"></path><polygon points="221.75 435.85 223.86 446.51 229.49 446.51 230.25 435.85 221.75 435.85" style="fill: rgb(255, 195, 189); transform-origin: 226px 441.18px;" id="el9dw7t17hp3l" class="animable"></polygon><path d="M228.75,445.16a2.45,2.45,0,0,1,2.43-.87c1.35.45,3.12,2.67,3.12,2.67s7.35,2.36,9.34,2.48,3.72,1.24,4.46,5.09H224s-.95-8.69-1.1-10.17,2.21.37,2.21.37Z" style="fill: rgb(221, 180, 180); transform-origin: 235.497px 449.158px;" id="elvgw37l0nudm" class="animable"></path><path d="M247.39,453.38l-4.34,0-19-.2c-.24,0-.24-.38,0-.37l1.28,0a.08.08,0,0,1,0-.05,4,4,0,0,0-2-5.09.18.18,0,0,1,.18-.32,4.33,4.33,0,0,1,2.15,5.46l2.67,0,19,.2C247.63,453,247.63,453.39,247.39,453.38Z" id="elqwof662cyjq" class="animable" style="transform-origin: 235.4px 450.353px;"></path><path d="M233.45,448.47a2.34,2.34,0,0,1,3.44-.62c.19.14.38-.18.19-.32a2.71,2.71,0,0,0-4,.75c-.14.2.18.39.32.19Z" style="fill: rgb(255, 255, 255); transform-origin: 235.102px 447.755px;" id="eluhzmwnnl6wo" class="animable"></path><path d="M235.52,449.1a2.34,2.34,0,0,1,3.44-.63c.2.15.38-.17.19-.32a2.71,2.71,0,0,0-4,.76c-.14.2.19.38.32.19Z" style="fill: rgb(255, 255, 255); transform-origin: 237.173px 448.379px;" id="elx30l1vwjaa8" class="animable"></path><path d="M237.67,449.72a2.33,2.33,0,0,1,3.43-.62c.2.14.38-.18.19-.32a2.7,2.7,0,0,0-3.95.76c-.13.19.19.38.33.18Z" style="fill: rgb(255, 255, 255); transform-origin: 239.34px 449.017px;" id="elyble24lt7a8" class="animable"></path><polygon points="171.34 435.93 172.51 446.51 178.14 446.51 179.83 435.93 171.34 435.93" style="fill: rgb(255, 195, 189); transform-origin: 175.585px 441.22px;" id="elbw654mc0vy5" class="animable"></polygon><path d="M177.4,445.16a2.44,2.44,0,0,1,2.42-.87c1.36.45,3.13,2.67,3.13,2.67s7.35,2.36,9.34,2.48,3.72,1.24,4.46,5.09H172.69s-.95-8.69-1.1-10.17,2.21.37,2.21.37Z" style="fill: rgb(221, 180, 180); transform-origin: 184.167px 449.158px;" id="elbrpoxzuisdj" class="animable"></path><path d="M196,453.38l-4.34,0-19-.2c-.24,0-.24-.38,0-.37l1.28,0a.08.08,0,0,1,0-.05,4,4,0,0,0-2-5.09.18.18,0,0,1,.18-.32,4.33,4.33,0,0,1,2.15,5.46l2.67,0,19,.2C196.28,453,196.28,453.39,196,453.38Z" id="elmti9r03yz2q" class="animable" style="transform-origin: 184.025px 450.353px;"></path><path d="M182.1,448.47a2.34,2.34,0,0,1,3.44-.62c.19.14.38-.18.19-.32a2.7,2.7,0,0,0-3.95.75c-.14.2.18.39.32.19Z" style="fill: rgb(255, 255, 255); transform-origin: 183.777px 447.765px;" id="el5zt17zigvw9" class="animable"></path><path d="M184.17,449.1a2.34,2.34,0,0,1,3.44-.63c.19.15.38-.17.19-.32a2.71,2.71,0,0,0-4,.76c-.14.2.19.38.32.19Z" style="fill: rgb(255, 255, 255); transform-origin: 185.822px 448.379px;" id="elekkudnbrhk4" class="animable"></path><path d="M186.32,449.72a2.33,2.33,0,0,1,3.43-.62c.2.14.38-.18.19-.32a2.7,2.7,0,0,0-3.95.76c-.13.19.19.38.33.18Z" style="fill: rgb(255, 255, 255); transform-origin: 187.99px 449.017px;" id="el3fk9vroz179" class="animable"></path><path d="M219.88,436.23h12.43c1.08-16,4.12-69.07,1.72-95.33,1.73-36.43-3.84-84.78-3.84-84.78H190.8s2.89,32.36,15.84,84.26C206.55,381.5,216.59,422.61,219.88,436.23Z" style="fill: rgb(38, 50, 56); transform-origin: 212.865px 346.175px;" id="elv6894d3cy2h" class="animable"></path><g id="eljcw9xleqq7"><path d="M204.52,331.66c7.12-29.09.87-66.8.87-66.8l-6.15,43.08Z" style="opacity: 0.2; transform-origin: 203.583px 298.26px;" class="animable"></path></g><polygon points="218.4 435.92 219.31 440.64 233.57 440.58 233.57 435.85 218.4 435.92" style="fill: rgb(38, 50, 56); transform-origin: 225.985px 438.245px;" id="elkp7sgjmusa" class="animable"></polygon><path d="M169.57,436.69H182c4.43-16.47,13.33-69.43,14.75-95.69,7.05-36.43,10.42-84.88,10.42-84.88H167.78s-3.67,32.73,1.72,84.63C168.45,386,169.28,422.61,169.57,436.69Z" style="fill: rgb(38, 50, 56); transform-origin: 186.865px 346.405px;" id="el76v0m8uw6jg" class="animable"></path><polygon points="168.48 435.9 168.45 440.59 182.82 440.59 183.58 435.91 168.48 435.9" style="fill: rgb(38, 50, 56); transform-origin: 176.015px 438.245px;" id="elcfi3bkeqzho" class="animable"></polygon><path d="M235.34,262.06C208,272.56,163.51,265,163.51,265c.53-13.36,1-39.82.81-61.81,0-.51,0-1,0-1.53,0-3.12-.08-6.14-.14-9,0-.35,0-.7,0-1C164,186,163.81,181,163.55,177c-.5-7.49,3.57-14.46,11-15.71,2.25-.38,4.68-.71,7.21-1l1.83-.19a177.62,177.62,0,0,1,21.75-.79l1.05,0,.56,0,.91,0c3.13.13,6.1.36,8.76.71,6,.78,11.41,5.55,11.51,11.65.09,5.59.64,17.39,1.43,30.7.3,5,.64,10.31,1,15.53C232,238.55,233.8,258.47,235.34,262.06Z" style="fill: rgb(221, 180, 180); transform-origin: 199.424px 213.444px;" id="ellw8kktfch0e" class="animable"></path><path d="M165.63,237.61a.08.08,0,0,1,0,0l0,0a.27.27,0,0,0-.13,0l-4,7.43-.76-.43-.19-.12-.12-.08-.22-.16-.46-.32-.37-.28c-.51-.38-.92-.72-1.36-1.08-.83-.71-1.62-1.41-2.39-2.12-1.53-1.41-3-2.82-4.46-4.25-2.88-2.89-5.67-5.83-8.38-8.85s-5.36-6.11-8-9.42c-.65-.83-1.31-1.69-2-2.61-.33-.48-.65-.92-1-1.47s-.68-1.09-1.07-1.82l-.31-.66-.16-.33-.22-.61-.19-.64a5.34,5.34,0,0,1-.21-1.06,8.82,8.82,0,0,1,0-2l.06-.49c0-.15.06-.34.08-.4l.15-.53a10.45,10.45,0,0,1,.4-1.06l.23-.5.13-.25.05-.09.43-.71c.34-.54.5-.75.72-1.06.85-1.17,1.53-2,2.24-2.85,2.79-3.29,5.55-6.2,8.34-9.15s5.61-5.78,8.48-8.57c5.71-5.63,11.51-11.1,17.56-16.37l11.44,12.58c-5.69,5.45-11.56,10.78-17.41,16.06l-8.74,7.92c-2.8,2.51-5.62,5.1-8.15,7.58q.3.54.63,1.08c1.94,3.2,4.14,6.45,6.3,9.69s4.42,6.47,6.68,9.64c1.12,1.6,2.25,3.18,3.4,4.71.57.77,1.15,1.5,1.71,2.21l.79,1,.31.37Z" style="fill: rgb(221, 180, 180); transform-origin: 154.757px 204.87px;" id="elx4gfog4s5ee" class="animable"></path><path d="M196.9,210.69h0a.25.25,0,0,1-.23-.27c1.46-20.61-3.64-42.1-3.69-42.31a.25.25,0,0,1,.49-.12c.05.22,5.17,21.77,3.7,42.47A.25.25,0,0,1,196.9,210.69Z" style="fill: rgb(255, 255, 255); transform-origin: 195.204px 189.244px;" id="elfi6wcjhk5d" class="animable"></path><path d="M208.67,210.22h0a.25.25,0,0,1-.23-.26c1.46-20.62-3.63-42.1-3.68-42.31a.25.25,0,1,1,.48-.12c.05.21,5.17,21.77,3.7,42.46A.25.25,0,0,1,208.67,210.22Z" style="fill: rgb(255, 255, 255); transform-origin: 206.973px 188.763px;" id="eljj9dl5le2eg" class="animable"></path><g id="elc12s6gzjve8"><path d="M230.55,218A159.12,159.12,0,0,1,208,168.75l21.56,33.72C229.84,207.51,230.18,212.78,230.55,218Z" style="opacity: 0.2; transform-origin: 219.275px 193.375px;" class="animable"></path></g><g id="elnqrrqjcon5a"><path d="M178,231.06s1.94,13.12,1.25,20.67c0,0,21.54,3.38,44.21-1.64a49.46,49.46,0,0,0-1.21-20.36C208.93,229.06,194,229.68,178,231.06Z" style="opacity: 0.2; transform-origin: 201.001px 241.151px;" class="animable"></path></g><path d="M210.55,117.55a16.37,16.37,0,0,0-13,.76c-2.63,1.37-4.91,3.46-4.85,6.6.13,7.33,2.17,19.58,2.17,19.58l24.73-11.18s1.8-6.13-1.09-10A16,16,0,0,0,210.55,117.55Z" style="fill: rgb(38, 50, 56); transform-origin: 206.426px 130.522px;" id="elwd1b82v4n5b" class="animable"></path><path d="M192.78,132.58s.54-2.12-1.92-6.08.24-6.41,2.12-5.85c0,0-1-2.43.66-3.26s2.46.11,2.46.11a19,19,0,0,1,14.54-3.28c6.75,1.34,11.73-3.37,14.24-1.54s-2,3.55-2,3.55,4,2.23,3.42,4.31-4.34,2.24-4.34,2.24,3.85,2.56,2.28,4.26-6.47-.36-6.47-.36S198.3,126.58,192.78,132.58Z" style="fill: rgb(38, 50, 56); transform-origin: 208.117px 122.416px;" id="elrzssnpru4c" class="animable"></path><path d="M205.65,153.6h0a.3.3,0,0,0,0,.08l-1.56,4.06a14.58,14.58,0,0,0-.31,2.52,13.82,13.82,0,0,0,.09,2c.78,1.36.91,4.26-2.35,3.92-4.12-.42-11.1-6.88-11.18-8.73,2.52-5.41,4.91-12.19,5.18-17.6l4.15,5.59Z" style="fill: rgb(255, 195, 189); transform-origin: 197.995px 153.029px;" id="el8r9uo32yjkr" class="animable"></path><g id="el1s75u0c5nlgh"><g style="opacity: 0.2; transform-origin: 202.226px 152.31px;" class="animable"><path d="M205.61,153.69l-1.56,4.06c-2.45-1.46-4.87-4.28-5.18-7.09-.22-2,.87-3.78,1.68-3.79Z" id="elxc83dlhzlf" class="animable" style="transform-origin: 202.226px 152.31px;"></path></g></g><path d="M217,146.09c-.34.88-.71,1.74-1.1,2.59-3.44,7.5-13.12,7.17-18.47.78,0,0,0,0,0,0a14,14,0,0,1-1.32-1.85c-3.25-5.4-1.88-9.14-.36-17.79a12,12,0,0,1,18.83-7.75C221.38,127,220.41,137.28,217,146.09Z" style="fill: rgb(255, 195, 189); transform-origin: 206.88px 137.049px;" id="elygy3cdaztm" class="animable"></path><path d="M209.25,145.27a1.41,1.41,0,1,1-.65-2.14A1.61,1.61,0,0,1,209.25,145.27Z" style="fill: rgb(255, 255, 255); transform-origin: 208.06px 144.45px;" id="eld5gkxb3t3g" class="animable"></path><path d="M203,128.46c2.25-.31.72-2.8,1.2-4.2,1.58-4.53,13.91-1.43,15.33,5.51,0,0-.34-5.29-4.19-8.53s-12.13-4.71-15.94-1-3.83,10.34-3.83,10.34a2.82,2.82,0,0,0,.64,2c.41.4,1.13,2.23,2.33,2.71,1,.42,1.8.25,2.18-1.23S201.44,128.67,203,128.46Z" style="fill: rgb(38, 50, 56); transform-origin: 207.546px 126.771px;" id="elhwjuq7e3do" class="animable"></path><path d="M190.69,134.61a8.3,8.3,0,0,0,2.72,5.76c2.19,1.95,4.56.31,5-2.43.42-2.46-.21-6.43-2.92-7.33s-5,1.3-4.83,4" style="fill: rgb(255, 195, 189); transform-origin: 194.59px 135.814px;" id="elrlxf8el1r3n" class="animable"></path><path d="M208.36,135.1c-.16.68.07,1.31.51,1.41s.92-.35,1.08-1-.06-1.31-.5-1.41-.93.35-1.09,1" style="fill: rgb(38, 50, 56); transform-origin: 209.156px 135.305px;" id="elx2gv057lhgb" class="animable"></path><path d="M215.74,136.78c-.16.67.07,1.3.51,1.41s.92-.36,1.08-1-.06-1.3-.5-1.4-.92.35-1.09,1" style="fill: rgb(38, 50, 56); transform-origin: 216.536px 136.991px;" id="el6hvs9vhlqs8" class="animable"></path><path d="M218.38,134.76a.37.37,0,0,1-.26-.24,1.85,1.85,0,0,0-.83-1.17,2.11,2.11,0,0,0-1.43-.12.33.33,0,0,1-.43-.23.34.34,0,0,1,.23-.43,2.72,2.72,0,0,1,2,.17,2.46,2.46,0,0,1,1.17,1.59.34.34,0,0,1-.24.43A.25.25,0,0,1,218.38,134.76Z" style="fill: rgb(38, 50, 56); transform-origin: 217.13px 133.619px;" id="elxcqm6pcbj0c" class="animable"></path><path d="M206.93,132a.33.33,0,0,1-.16-.07.38.38,0,0,1-.05-.53,3,3,0,0,1,1.89-1,2.7,2.7,0,0,1,2,.74.39.39,0,0,1,0,.54.38.38,0,0,1-.53,0,2,2,0,0,0-1.44-.56,2.19,2.19,0,0,0-1.37.74A.38.38,0,0,1,206.93,132Z" style="fill: rgb(38, 50, 56); transform-origin: 208.677px 131.199px;" id="elevmf2go05di" class="animable"></path><path d="M213,135.6a21.37,21.37,0,0,0,1.28,5.21c.94,2.14-2.75,1.34-2.75,1.34Z" style="fill: rgb(237, 132, 126); transform-origin: 212.982px 138.948px;" id="elk0kyaxfhnbe" class="animable"></path><g id="elnv19c4nk9d"><path d="M177.14,180.37,164.3,201.61c0-3.12-.08-6.14-.14-9,0-.35,0-.7,0-1Z" style="opacity: 0.2; transform-origin: 170.65px 190.99px;" class="animable"></path></g><path d="M239.16,212.18A8.85,8.85,0,0,1,228,208.66l-.44-.74-.87-1.49c-.15-.24-.29-.49-.43-.74-.47-.8-.93-1.61-1.4-2.42l-1.55-2.71-1.54-2.71c-.52-.9-1-1.81-1.53-2.71s-1-1.82-1.52-2.73l-.18-.33-2.84-5.14c-2-3.66-4-7.33-5.88-11s-3.82-7.42-5.61-11.21l7.87-5.15c2.75,3.16,5.39,6.4,8,9.65l.87,1.09,6-3.14c1.5,2.64,2.92,5.32,4.32,8s2.77,5.4,4.11,8.12,2.68,5.45,4,8.2,2.59,5.5,3.85,8.26l.35.78A8.8,8.8,0,0,1,239.16,212.18Z" style="fill: rgb(221, 180, 180); transform-origin: 224.283px 186.259px;" id="elc1d9r8kggb9" class="animable"></path><path d="M223.26,200.56,223,200q-1.41-2.43-2.76-4.89c.5.9,1,1.81,1.53,2.71Z" style="fill: rgb(221, 180, 180); transform-origin: 221.75px 197.835px;" id="el9eh740o65s5" class="animable"></path><path d="M212,161.58c-.19,1.52-1.29,3.88-3.5,3.8a12.45,12.45,0,0,1-4-.87h0c-1.69-.43-4.86-1.5-5.95-3.59-1.53-2.92.86-7.5.86-7.5-2.48-2.35-5.41-6.39-3.36-5.47s10.09,6.54,13,5.9c2.68-.59,3.62-2.91,4.62-2.44s-1,2.62-2.06,4.78A18.44,18.44,0,0,1,212,161.58Z" style="fill: rgb(255, 195, 189); transform-origin: 204.651px 156.599px;" id="elov4rkkh1879" class="animable"></path><g id="el6cbai8vjign"><g style="opacity: 0.2; transform-origin: 204.58px 156.125px;" class="animable"><path d="M203.79,164.55l-.11,0c-.2-.1-5.06-2.38-5.94-4.86-.78-2.22.9-5.41,1.36-6.21a19.49,19.49,0,0,1-3.66-4c-.35-.72-.43-1.24-.24-1.58a.57.57,0,0,1,.44-.3c1,0,2.08.78,3.53,1.85a28.48,28.48,0,0,0,5.68,3.45c4.37,1.92,5.16.75,5.68,0l.19-.29c.58-.83,1.55-2.22,3.19-1.55a.24.24,0,0,1,.13.32.24.24,0,0,1-.32.14c-1.18-.47-1.87.34-2.59,1.38l-.19.28c-.78,1.15-1.91,2.12-6.29.2a28.69,28.69,0,0,1-5.77-3.51c-1.33-1-2.37-1.74-3.21-1.76,0,0,0,0,0,.07s-.11.34.26,1.1c.68,1.4,3.66,4,3.69,4a.24.24,0,0,1,0,.32s-2.22,3.68-1.42,6,5.64,4.55,5.68,4.57a.25.25,0,0,1-.1.48Z" id="elv7ygz1tfps8" class="animable" style="transform-origin: 204.58px 156.125px;"></path></g></g><g id="elg603fiykbj"><path d="M215.58,163.58,237,196.17S234.5,185.25,215.58,163.58Z" style="opacity: 0.2; transform-origin: 226.29px 179.875px;" class="animable"></path></g><path d="M164.17,237.78s8.62,2.65,9.31,4.33-2.14,1.25-2.14,1.25,3.07.64,3,1.83c-.1,1.42-3.05.95-3.05.95s2.49.62,2.34,1.66-3.53.77-3.53.77,1.68.73,1.1,1.38-6.84.2-8.82-1.21-.7-9.3-.12-11-.44-3.5,2-5.47l-.08,5.53Z" style="fill: rgb(255, 195, 189); transform-origin: 167.828px 241.256px;" id="elkne5or59p7b" class="animable"></path><g id="elcfky6qlp2xn"><path d="M171.32,243.49h0L166,242.13a.14.14,0,0,1-.1-.16.16.16,0,0,1,.17-.1l5.3,1.36a.13.13,0,0,1,.1.16A.13.13,0,0,1,171.32,243.49Z" style="opacity: 0.2; transform-origin: 168.686px 242.68px;" class="animable"></path></g><g id="elzbz0x1qsufg"><path d="M171.11,246.25h0l-5.19-.95a.12.12,0,0,1-.11-.15A.14.14,0,0,1,166,245l5.2,1a.13.13,0,0,1,0,.26Z" style="opacity: 0.2; transform-origin: 168.568px 245.625px;" class="animable"></path></g><g id="elra1rrl9ukm"><path d="M169.9,248.67l-3.89-.6a.13.13,0,0,1-.11-.15.14.14,0,0,1,.16-.11l3.88.6a.13.13,0,0,1,.11.15A.12.12,0,0,1,169.9,248.67Z" style="opacity: 0.2; transform-origin: 167.975px 248.241px;" class="animable"></path></g></g><defs>     <filter id="active" height="200%">         <feMorphology in="SourceAlpha" result="DILATED" operator="dilate" radius="2"></feMorphology>                <feFlood flood-color="#32DFEC" flood-opacity="1" result="PINK"></feFlood>        <feComposite in="PINK" in2="DILATED" operator="in" result="OUTLINE"></feComposite>        <feMerge>            <feMergeNode in="OUTLINE"></feMergeNode>            <feMergeNode in="SourceGraphic"></feMergeNode>        </feMerge>    </filter>    <filter id="hover" height="200%">        <feMorphology in="SourceAlpha" result="DILATED" operator="dilate" radius="2"></feMorphology>                <feFlood flood-color="#ff0000" flood-opacity="0.5" result="PINK"></feFlood>        <feComposite in="PINK" in2="DILATED" operator="in" result="OUTLINE"></feComposite>        <feMerge>            <feMergeNode in="OUTLINE"></feMergeNode>            <feMergeNode in="SourceGraphic"></feMergeNode>        </feMerge>            <feColorMatrix type="matrix" values="0   0   0   0   0                0   1   0   0   0                0   0   0   0   0                0   0   0   1   0 "></feColorMatrix>    </filter></defs></svg>